<?xml version="1.0" encoding="UTF-8" standalone="no"?>
<!DOCTYPE svg PUBLIC "-//W3C//DTD SVG 1.1//EN"
 "http://www.w3.org/Graphics/SVG/1.1/DTD/svg11.dtd">
<!-- Generated by graphviz version 2.40.1 (20161225.0304)
 -->
<!-- Title: G Pages: 1 -->
<svg width="489pt" height="311pt"
 viewBox="0.00 0.00 488.99 311.30" xmlns="http://www.w3.org/2000/svg" xmlns:xlink="http://www.w3.org/1999/xlink">
<g id="graph0" class="graph" transform="scale(1 1) rotate(0) translate(21.6 289.6986)">
<title>G</title>
<polygon fill="#111111" stroke="transparent" points="-21.6,21.6 -21.6,-289.6986 467.392,-289.6986 467.392,21.6 -21.6,21.6"/>
<!-- ../lib/api.js -->
<g id="node1" class="node">
<title>../lib/api.js</title>
<path fill="none" stroke="#c6c5fe" d="M176.2685,-186.1482C176.2685,-186.1482 113.9034,-186.1482 113.9034,-186.1482 109.8704,-186.1482 105.8375,-182.1152 105.8375,-178.0823 105.8375,-178.0823 105.8375,-170.0164 105.8375,-170.0164 105.8375,-165.9834 109.8704,-161.9505 113.9034,-161.9505 113.9034,-161.9505 176.2685,-161.9505 176.2685,-161.9505 180.3014,-161.9505 184.3344,-165.9834 184.3344,-170.0164 184.3344,-170.0164 184.3344,-178.0823 184.3344,-178.0823 184.3344,-182.1152 180.3014,-186.1482 176.2685,-186.1482"/>
<text text-anchor="middle" x="145.0859" y="-170.8986" font-family="Arial" font-size="14.00" fill="#c6c5fe">../lib/api.js</text>
</g>
<!-- ../lib/cyclic.js -->
<g id="node2" class="node">
<title>../lib/cyclic.js</title>
<path fill="none" stroke="#cfffac" d="M322.5784,-268.1482C322.5784,-268.1482 245.1374,-268.1482 245.1374,-268.1482 241.1045,-268.1482 237.0715,-264.1152 237.0715,-260.0823 237.0715,-260.0823 237.0715,-252.0164 237.0715,-252.0164 237.0715,-247.9834 241.1045,-243.9505 245.1374,-243.9505 245.1374,-243.9505 322.5784,-243.9505 322.5784,-243.9505 326.6113,-243.9505 330.6443,-247.9834 330.6443,-252.0164 330.6443,-252.0164 330.6443,-260.0823 330.6443,-260.0823 330.6443,-264.1152 326.6113,-268.1482 322.5784,-268.1482"/>
<text text-anchor="middle" x="283.8579" y="-252.8986" font-family="Arial" font-size="14.00" fill="#cfffac">../lib/cyclic.js</text>
</g>
<!-- ../lib/api.js&#45;&gt;../lib/cyclic.js -->
<g id="edge1" class="edge">
<title>../lib/api.js&#45;&gt;../lib/cyclic.js</title>
<path fill="none" stroke="#757575" d="M161.3234,-186.1974C179.1289,-199.211 208.8171,-220.0178 236.1719,-235.0493 239.0259,-236.6176 242.0203,-238.1601 245.0591,-239.6531"/>
<polygon fill="#757575" stroke="#757575" points="243.6741,-242.8695 254.2127,-243.9595 246.654,-236.5354 243.6741,-242.8695"/>
</g>
<!-- ../lib/graph.js -->
<g id="node3" class="node">
<title>../lib/graph.js</title>
<path fill="none" stroke="#cfffac" d="M323.6648,-226.1482C323.6648,-226.1482 244.051,-226.1482 244.051,-226.1482 240.0181,-226.1482 235.9851,-222.1152 235.9851,-218.0823 235.9851,-218.0823 235.9851,-210.0164 235.9851,-210.0164 235.9851,-205.9834 240.0181,-201.9505 244.051,-201.9505 244.051,-201.9505 323.6648,-201.9505 323.6648,-201.9505 327.6978,-201.9505 331.7307,-205.9834 331.7307,-210.0164 331.7307,-210.0164 331.7307,-218.0823 331.7307,-218.0823 331.7307,-222.1152 327.6978,-226.1482 323.6648,-226.1482"/>
<text text-anchor="middle" x="283.8579" y="-210.8986" font-family="Arial" font-size="14.00" fill="#cfffac">../lib/graph.js</text>
</g>
<!-- ../lib/api.js&#45;&gt;../lib/graph.js -->
<g id="edge2" class="edge">
<title>../lib/api.js&#45;&gt;../lib/graph.js</title>
<path fill="none" stroke="#757575" d="M184.4812,-185.4047C199.3455,-189.6892 216.4837,-194.6292 232.2968,-199.1872"/>
<polygon fill="#757575" stroke="#757575" points="231.3612,-202.56 241.9394,-201.9666 233.3,-195.8338 231.3612,-202.56"/>
</g>
<!-- ../lib/log.js -->
<g id="node4" class="node">
<title>../lib/log.js</title>
<path fill="none" stroke="#cfffac" d="M437.8505,-146.1482C437.8505,-146.1482 375.4854,-146.1482 375.4854,-146.1482 371.4525,-146.1482 367.4195,-142.1152 367.4195,-138.0823 367.4195,-138.0823 367.4195,-130.0164 367.4195,-130.0164 367.4195,-125.9834 371.4525,-121.9505 375.4854,-121.9505 375.4854,-121.9505 437.8505,-121.9505 437.8505,-121.9505 441.8835,-121.9505 445.9164,-125.9834 445.9164,-130.0164 445.9164,-130.0164 445.9164,-138.0823 445.9164,-138.0823 445.9164,-142.1152 441.8835,-146.1482 437.8505,-146.1482"/>
<text text-anchor="middle" x="406.668" y="-130.8986" font-family="Arial" font-size="14.00" fill="#cfffac">../lib/log.js</text>
</g>
<!-- ../lib/api.js&#45;&gt;../lib/log.js -->
<g id="edge3" class="edge">
<title>../lib/api.js&#45;&gt;../lib/log.js</title>
<path fill="none" stroke="#757575" d="M184.2919,-172.0084C222.2177,-169.5755 281.1894,-164.5803 331.5439,-155.0493 340.3416,-153.3841 349.6059,-151.1783 358.509,-148.8222"/>
<polygon fill="#757575" stroke="#757575" points="359.6455,-152.1398 368.3633,-146.119 357.7937,-145.3892 359.6455,-152.1398"/>
</g>
<!-- ../lib/tree.js -->
<g id="node5" class="node">
<title>../lib/tree.js</title>
<path fill="none" stroke="#c6c5fe" d="M317.482,-146.1482C317.482,-146.1482 250.2338,-146.1482 250.2338,-146.1482 246.2008,-146.1482 242.1679,-142.1152 242.1679,-138.0823 242.1679,-138.0823 242.1679,-130.0164 242.1679,-130.0164 242.1679,-125.9834 246.2008,-121.9505 250.2338,-121.9505 250.2338,-121.9505 317.482,-121.9505 317.482,-121.9505 321.515,-121.9505 325.5479,-125.9834 325.5479,-130.0164 325.5479,-130.0164 325.5479,-138.0823 325.5479,-138.0823 325.5479,-142.1152 321.515,-146.1482 317.482,-146.1482"/>
<text text-anchor="middle" x="283.8579" y="-130.8986" font-family="Arial" font-size="14.00" fill="#c6c5fe">../lib/tree.js</text>
</g>
<!-- ../lib/api.js&#45;&gt;../lib/tree.js -->
<g id="edge4" class="edge">
<title>../lib/api.js&#45;&gt;../lib/tree.js</title>
<path fill="none" stroke="#757575" d="M184.4812,-162.6939C199.3455,-158.4094 216.4837,-153.4694 232.2968,-148.9114"/>
<polygon fill="#757575" stroke="#757575" points="233.3,-152.2648 241.9394,-146.132 231.3612,-145.5387 233.3,-152.2648"/>
</g>
<!-- ../lib/tree.js&#45;&gt;../lib/log.js -->
<g id="edge5" class="edge">
<title>../lib/tree.js&#45;&gt;../lib/log.js</title>
<path fill="none" stroke="#757575" d="M325.7787,-134.0493C335.889,-134.0493 346.7855,-134.0493 357.2048,-134.0493"/>
<polygon fill="#757575" stroke="#757575" points="357.4183,-137.5494 367.4183,-134.0493 357.4183,-130.5494 357.4183,-137.5494"/>
</g>
<!-- ../lib/output.js -->
<g id="node6" class="node">
<title>../lib/output.js</title>
<path fill="none" stroke="#cfffac" d="M186.5105,-66.1482C186.5105,-66.1482 103.6613,-66.1482 103.6613,-66.1482 99.6284,-66.1482 95.5955,-62.1152 95.5955,-58.0823 95.5955,-58.0823 95.5955,-50.0164 95.5955,-50.0164 95.5955,-45.9834 99.6284,-41.9505 103.6613,-41.9505 103.6613,-41.9505 186.5105,-41.9505 186.5105,-41.9505 190.5435,-41.9505 194.5764,-45.9834 194.5764,-50.0164 194.5764,-50.0164 194.5764,-58.0823 194.5764,-58.0823 194.5764,-62.1152 190.5435,-66.1482 186.5105,-66.1482"/>
<text text-anchor="middle" x="145.0859" y="-50.8986" font-family="Arial" font-size="14.00" fill="#cfffac">../lib/output.js</text>
</g>
<!-- ../package.json -->
<g id="node7" class="node">
<title>../package.json</title>
<path fill="none" stroke="#cfffac" d="M192.1921,-24.1482C192.1921,-24.1482 97.9798,-24.1482 97.9798,-24.1482 93.9469,-24.1482 89.9139,-20.1152 89.9139,-16.0823 89.9139,-16.0823 89.9139,-8.0164 89.9139,-8.0164 89.9139,-3.9834 93.9469,.0495 97.9798,.0495 97.9798,.0495 192.1921,.0495 192.1921,.0495 196.225,.0495 200.2579,-3.9834 200.2579,-8.0164 200.2579,-8.0164 200.2579,-16.0823 200.2579,-16.0823 200.2579,-20.1152 196.225,-24.1482 192.1921,-24.1482"/>
<text text-anchor="middle" x="145.0859" y="-8.8986" font-family="Arial" font-size="14.00" fill="#cfffac">../package.json</text>
</g>
<!-- cli.js -->
<g id="node8" class="node">
<title>cli.js</title>
<path fill="none" stroke="#c6c5fe" d="M45.9341,-86.1482C45.9341,-86.1482 8.0659,-86.1482 8.0659,-86.1482 4.0329,-86.1482 0,-82.1152 0,-78.0823 0,-78.0823 0,-70.0164 0,-70.0164 0,-65.9834 4.0329,-61.9505 8.0659,-61.9505 8.0659,-61.9505 45.9341,-61.9505 45.9341,-61.9505 49.9671,-61.9505 54,-65.9834 54,-70.0164 54,-70.0164 54,-78.0823 54,-78.0823 54,-82.1152 49.9671,-86.1482 45.9341,-86.1482"/>
<text text-anchor="middle" x="27" y="-70.8986" font-family="Arial" font-size="14.00" fill="#c6c5fe">cli.js</text>
</g>
<!-- cli.js&#45;&gt;../lib/api.js -->
<g id="edge6" class="edge">
<title>cli.js&#45;&gt;../lib/api.js</title>
<path fill="none" stroke="#757575" d="M41.4797,-86.3113C61.8634,-103.5731 99.1887,-135.1817 123.0343,-155.3751"/>
<polygon fill="#757575" stroke="#757575" points="120.9635,-158.2079 130.8567,-161.9994 125.4873,-152.8659 120.9635,-158.2079"/>
</g>
<!-- cli.js&#45;&gt;../lib/log.js -->
<g id="edge7" class="edge">
<title>cli.js&#45;&gt;../lib/log.js</title>
<path fill="none" stroke="#757575" d="M54.1027,-76.1893C107.5596,-80.7025 230.195,-92.5077 331.5439,-113.0493 340.1265,-114.7888 349.1664,-116.9895 357.8851,-119.3072"/>
<polygon fill="#757575" stroke="#757575" points="356.9812,-122.6885 367.5507,-121.9555 358.8311,-115.9374 356.9812,-122.6885"/>
</g>
<!-- cli.js&#45;&gt;../lib/output.js -->
<g id="edge8" class="edge">
<title>cli.js&#45;&gt;../lib/output.js</title>
<path fill="none" stroke="#757575" d="M54.0913,-69.4609C63.4752,-67.8716 74.4,-66.0213 85.3564,-64.1656"/>
<polygon fill="#757575" stroke="#757575" points="86.1088,-67.5881 95.3839,-62.4673 84.9398,-60.6864 86.1088,-67.5881"/>
</g>
<!-- cli.js&#45;&gt;../package.json -->
<g id="edge9" class="edge">
<title>cli.js&#45;&gt;../package.json</title>
<path fill="none" stroke="#757575" d="M43.5268,-61.8975C55.9063,-53.1469 73.4835,-41.4511 90,-33.0493 93.3439,-31.3483 96.8597,-29.7038 100.4295,-28.1346"/>
<polygon fill="#757575" stroke="#757575" points="102.0453,-31.2528 109.9242,-24.1694 99.3477,-24.7935 102.0453,-31.2528"/>
</g>
</g>
</svg>
